<svg width="32" height="32" viewBox="0 0 32 32" fill="none" xmlns="http://www.w3.org/2000/svg">
<path d="M27.0002 5.99915H5.00025C4.46998 5.99967 3.96157 6.21055 3.58661 6.58551C3.21165 6.96047 3.00077 7.46887 3.00025 7.99915V27.8527C2.99892 28.2341 3.10687 28.608 3.31133 28.93C3.51579 29.252 3.80819 29.5087 4.15397 29.6698C4.49974 29.8309 4.88441 29.8896 5.26248 29.8389C5.64055 29.7882 5.9962 29.6303 6.28736 29.3839L10.2571 26.046L27.0002 25.9991C27.5305 25.9986 28.0389 25.7877 28.4139 25.4128C28.7888 25.0378 28.9997 24.5294 29.0002 23.9991V7.99915C28.9997 7.46887 28.7888 6.96047 28.4139 6.58551C28.0389 6.21055 27.5305 5.99967 27.0002 5.99915V5.99915ZM10.0001 17.5001C9.70345 17.5001 9.41344 17.4122 9.16677 17.2473C8.92009 17.0825 8.72784 16.8482 8.6143 16.5742C8.50077 16.3001 8.47107 15.9985 8.52895 15.7075C8.58682 15.4165 8.72968 15.1492 8.93946 14.9395C9.14924 14.7297 9.41652 14.5868 9.70749 14.5289C9.99846 14.4711 10.3001 14.5008 10.5741 14.6143C10.8482 14.7278 11.0825 14.9201 11.2473 15.1668C11.4121 15.4134 11.5001 15.7035 11.5001 16.0001C11.5001 16.398 11.3421 16.7795 11.0608 17.0608C10.7795 17.3421 10.3979 17.5001 10.0001 17.5001ZM16.0001 17.5001C15.7035 17.5001 15.4134 17.4122 15.1668 17.2473C14.9201 17.0825 14.7278 16.8482 14.6143 16.5742C14.5008 16.3001 14.4711 15.9985 14.5289 15.7075C14.5868 15.4165 14.7297 15.1492 14.9395 14.9395C15.1492 14.7297 15.4165 14.5868 15.7075 14.5289C15.9985 14.4711 16.3001 14.5008 16.5741 14.6143C16.8482 14.7278 17.0825 14.9201 17.2473 15.1668C17.4121 15.4134 17.5001 15.7035 17.5001 16.0001C17.5001 16.398 17.3421 16.7795 17.0608 17.0608C16.7795 17.3421 16.3979 17.5001 16.0001 17.5001ZM22.0001 17.5001C21.7035 17.5001 21.4134 17.4122 21.1668 17.2473C20.9201 17.0825 20.7278 16.8482 20.6143 16.5742C20.5008 16.3001 20.4711 15.9985 20.5289 15.7075C20.5868 15.4165 20.7297 15.1492 20.9395 14.9395C21.1492 14.7297 21.4165 14.5868 21.7075 14.5289C21.9985 14.4711 22.3001 14.5008 22.5741 14.6143C22.8482 14.7278 23.0825 14.9201 23.2473 15.1668C23.4121 15.4134 23.5001 15.7035 23.5001 16.0001C23.5001 16.398 23.3421 16.7795 23.0608 17.0608C22.7795 17.3421 22.3979 17.5001 22.0001 17.5001Z" fill="#8A7EB5"/>
</svg>
