<svg width="32" height="32" viewBox="0 0 32 32" fill="none" xmlns="http://www.w3.org/2000/svg">
<path d="M9.66893 25.2346L5.64354 28.6185C5.49777 28.741 5.32004 28.8194 5.13126 28.8444C4.94247 28.8694 4.75048 28.8399 4.57785 28.7595C4.40523 28.6791 4.25915 28.5511 4.15679 28.3905C4.05444 28.2299 4.00006 28.0435 4.00006 27.853V8.00006C4.00006 7.73484 4.10542 7.48049 4.29295 7.29295C4.48049 7.10542 4.73484 7.00006 5.00006 7.00006H27.0001C27.2653 7.00006 27.5196 7.10542 27.7072 7.29295C27.8947 7.48049 28.0001 7.73484 28.0001 8.00006V24.0001C28.0001 24.2653 27.8947 24.5196 27.7072 24.7072C27.5196 24.8947 27.2653 25.0001 27.0001 25.0001H10.3124C10.077 25.0001 9.84913 25.0831 9.66893 25.2346Z" stroke="#C0C4C8" stroke-width="2" stroke-linecap="round" stroke-linejoin="round"/>
<path d="M16 17.5C16.8284 17.5 17.5 16.8284 17.5 16C17.5 15.1716 16.8284 14.5 16 14.5C15.1716 14.5 14.5 15.1716 14.5 16C14.5 16.8284 15.1716 17.5 16 17.5Z" fill="#C0C4C8"/>
<path d="M10 17.5C10.8284 17.5 11.5 16.8284 11.5 16C11.5 15.1716 10.8284 14.5 10 14.5C9.17157 14.5 8.5 15.1716 8.5 16C8.5 16.8284 9.17157 17.5 10 17.5Z" fill="#C0C4C8"/>
<path d="M22 17.5C22.8284 17.5 23.5 16.8284 23.5 16C23.5 15.1716 22.8284 14.5 22 14.5C21.1716 14.5 20.5 15.1716 20.5 16C20.5 16.8284 21.1716 17.5 22 17.5Z" fill="#C0C4C8"/>
</svg>
